# xmcd
#
# Track frame offsets: 
#        150
#        12562
#        23902
#        37220
#        49670
#        60290
#        71942
#        83855
#        94320
#        108105
#        119342
#        131365
#        143200
#        155247
#        167812
#        179327
#        186965
#        197060
#        207580
#        219090
#        232450
#        243392
#        254362
#        264710
#        275112
#        285857
#
# Disc length: 3959 seconds
#
# Revision: 1
# Processed by: cddbd v1.5.2PL0 Copyright (c) Steve Scherf et al.
# Submitted via: ExactAudioCopyFreeDBPlugin 1.0
#
DISCID=930f751a
DTITLE=Arthur Gunter - Baby Let's Play House: The Best Of Arthur Gunte
DTITLE=r
DYEAR=1995
DGENRE=
TTITLE0=Baby Let's Play House
TTITLE1=Blues After Hours
TTITLE2=Ludella
TTITLE3=No Naggin' No Draggin'
TTITLE4=Mind Your Own Business Babe
TTITLE5=Honey Babe
TTITLE6=No Happy Home
TTITLE7=Workin' for My Baby
TTITLE8=Baby Can't You See
TTITLE9=Little Blue Jeans Woman
TTITLE10=You're Always on My Mind
TTITLE11=Baby You Better Listen
TTITLE12=I Want Her Back
TTITLE13=Crazy Me
TTITLE14=Don't Leave Me Now [alternate]
TTITLE15=Letter to My Baby [solo]
TTITLE16=Pigmeat [solo]
TTITLE17=Falling in Love #1 [solo]
TTITLE18=(Just Another Day) Working for My Baby [solo]
TTITLE19=Story of Jesse James [solo]
TTITLE20=She's Mine, All Mine
TTITLE21=I've Got a Feeling Something Is Wrong
TTITLE22=Who Will Ever Move Me from You
TTITLE23=Just Take It Easy
TTITLE24=My Baby's Taking a Day Off
TTITLE25=My Heart's Always Lonesome
EXTD=
EXTT0=
EXTT1=
EXTT2=
EXTT3=
EXTT4=
EXTT5=
EXTT6=
EXTT7=
EXTT8=
EXTT9=
EXTT10=
EXTT11=
EXTT12=
EXTT13=
EXTT14=
EXTT15=
EXTT16=
EXTT17=
EXTT18=
EXTT19=
EXTT20=
EXTT21=
EXTT22=
EXTT23=
EXTT24=
EXTT25=
PLAYORDER=
